<svg xmlns="http://www.w3.org/2000/svg"  viewBox="0 0 40 40" width="40px" height="40px"><path fill="#dbf2ff" d="M38.5,20.025c0.01-1.135-0.431-2.2-1.232-3l-1.581-1.581l-7.926,7.834l4.597,4.607l4.91-4.904 C38.054,22.19,38.495,21.14,38.5,20.025z"/><path fill="#c2e8ff" d="M32.356,28.591l-5.305-5.316l8.637-8.537l1.934,1.933c0.899,0.899,1.389,2.092,1.378,3.358 c-0.006,1.242-0.495,2.415-1.377,3.303L32.356,28.591z M28.47,23.28l3.889,3.897l4.557-4.551c0.695-0.7,1.081-1.625,1.085-2.603 v-0.002c0.009-0.996-0.377-1.934-1.085-2.643l-1.23-1.23L28.47,23.28z"/><path fill="#788b9c" d="M22.98,2.732C22.185,1.936,21.125,1.5,20,1.5s-2.179,0.436-2.975,1.232l-4.9,4.9l7.885,7.895 l7.875-7.885L22.98,2.732z"/><path fill="#66798f" d="M20.01,16.234l-8.592-8.602l5.254-5.253C17.56,1.49,18.741,1,20,1c1.262,0,2.445,0.489,3.334,1.378 l5.259,5.263L20.01,16.234z M12.832,7.632l7.178,7.187l7.169-7.177l-4.552-4.556c-1.398-1.397-3.848-1.401-5.248,0L12.832,7.632z"/><path fill="#b5ddf5" d="M32.362,27.881l-9.387,9.387C22.185,38.064,21.125,38.5,20,38.5s-2.179-0.436-2.975-1.232 l-9.372-9.372L20.01,15.525L32.362,27.881z"/><path fill="#7496c4" d="M20,39c-1.259,0-2.44-0.489-3.328-1.378l-9.726-9.725l13.063-13.08l13.06,13.064l-9.74,9.74 C22.446,38.51,21.264,39,20,39z M8.36,27.896l9.019,9.018c1.4,1.402,3.854,1.396,5.242,0.001l9.034-9.034L20.01,16.232L8.36,27.896z"/><polygon fill="#8bb7f0" points="27.887,7.643 20.011,15.523 27.757,23.278 35.688,15.449"/><path fill="#4e7ab5" d="M27.755,23.983l-8.45-8.46l8.582-8.587l8.511,8.516L27.755,23.983z M20.719,15.523l7.042,7.05 l7.219-7.126l-7.093-7.096L20.719,15.523z"/><path fill="#4b6477" d="M12.124,7.633l-9.392,9.392C1.936,17.821,1.5,18.875,1.5,20c0,1.125,0.436,2.179,1.232,2.975 l4.923,4.923l12.357-12.372L12.124,7.633z"/><path fill="#36404d" d="M7.655,28.606l-5.277-5.277C1.49,22.44,1,21.258,1,20s0.489-2.44,1.378-3.329l9.746-9.746 l8.596,8.601L7.655,28.606z M12.124,8.34l-9.039,9.039C2.386,18.078,2,19.009,2,20s0.385,1.922,1.085,2.622l4.57,4.569l11.65-11.665 L12.124,8.34z"/></svg>